<svg width="22" height="23" viewBox="0 0 22 23" version="1.1" xmlns="http://www.w3.org/2000/svg" xmlns:xlink="http://www.w3.org/1999/xlink">
<title>Vector</title>
<desc>Created using Figma</desc>
<g id="Canvas" transform="translate(-9894 -1187)">
<g id="Vector">
<use xlink:href="#path0_fill" transform="translate(9894 1187)" fill="#2A2A2A"/>
</g>
</g>
<defs>
<path id="path0_fill" d="M 19.5556 0L 2.44444 0C 1.1 0 0 1.15 0 2.55556L 0 20.4444C 0 21.85 1.1 23 2.44444 23L 19.5556 23C 20.9 23 22 21.85 22 20.4444L 22 2.55556C 22 1.15 20.9 0 19.5556 0ZM 11 18.5278C 14.7889 18.5278 17.7222 15.3333 17.7222 11.5C 17.7222 11.1167 17.7222 10.6056 17.6 10.2222L 19.5556 10.2222L 19.5556 19.4222C 19.5556 19.9333 19.1889 20.3167 18.7 20.3167L 3.3 20.3167C 2.81111 20.3167 2.44444 19.9333 2.44444 19.4222L 2.44444 10.2222L 4.27778 10.2222C 4.27778 10.6056 4.15556 10.9889 4.15556 11.5C 4.15556 15.3333 7.21111 18.5278 11 18.5278ZM 6.72222 11.5C 6.72222 9.07222 8.67778 7.02778 11 7.02778C 13.3222 7.02778 15.2778 8.94444 15.2778 11.5C 15.2778 14.0556 13.3222 15.9722 11 15.9722C 8.67778 15.8444 6.72222 13.9278 6.72222 11.5ZM 18.7 6.38889L 16.7444 6.38889C 16.2556 6.38889 15.8889 6.00556 15.8889 5.49444L 15.8889 3.45C 15.8889 2.93889 16.2556 2.55556 16.7444 2.55556L 18.7 2.55556C 19.1889 2.55556 19.5556 2.93889 19.5556 3.45L 19.5556 5.49444C 19.5556 6.00556 19.1889 6.38889 18.7 6.38889Z"/>
</defs>
</svg>
