<svg width="28" height="23" viewBox="0 0 28 23" version="1.1" xmlns="http://www.w3.org/2000/svg" xmlns:xlink="http://www.w3.org/1999/xlink">
<title>Vector</title>
<desc>Created using Figma</desc>
<g id="Canvas" transform="translate(-9835 -1187)">
<g id="Vector">
<use xlink:href="#path0_fill" transform="translate(9835 1187)" fill="#2A2A2A"/>
</g>
</g>
<defs>
<path id="path0_fill" d="M 27.4894 2.76409C 27.4894 2.67492 27.4894 2.67492 27.4894 2.76409C 26.7014 3.12074 25.826 3.38824 24.9505 3.56656C 24.6879 3.56656 24.5128 3.56656 24.2502 3.56656C 25.1256 3.03158 25.9135 2.13994 26.3513 1.15913C 26.4388 0.891641 26.6139 0.624149 26.7015 0.356656C 25.6509 0.980805 24.4253 1.51579 23.1121 1.78328C 22.0615 0.624149 20.6608 0 18.9974 0C 15.8458 0 13.3945 2.58576 13.3945 5.7065C 13.3945 6.15232 13.482 6.50898 13.482 6.86563L 13.482 6.9548C 9.36739 6.77647 5.69047 4.99319 2.97656 2.2291C 2.62637 1.87245 2.27619 1.51579 1.92601 1.06997C 1.40073 1.96161 1.13809 2.94241 1.13809 3.92322C 1.13809 5.52817 1.83846 7.04396 2.88901 8.11393C 3.15165 8.38142 3.32674 8.55975 3.58938 8.73808C 2.71392 8.73808 1.83846 8.47059 1.05055 8.02477L 1.05055 8.11393C 1.05055 10.4322 2.36373 12.3938 4.37729 13.2854C 4.72747 13.4638 5.1652 13.6421 5.60293 13.7313C 5.1652 13.8204 4.63992 13.9096 4.11465 13.9096C 3.85201 13.9096 3.50183 13.9096 3.23919 13.8204C 3.15165 13.8204 3.15165 13.8204 3.0641 13.8204C 3.67692 15.782 5.34029 17.2978 7.44139 17.7437C 7.70402 17.8328 8.05421 17.8328 8.31684 17.8328C 6.39084 19.3486 3.93956 20.2402 1.31319 20.2402C 0.963003 20.2402 0.525274 20.2402 0.175091 20.1511C 0.0875457 20.1511 0 20.1511 0 20.1511C 2.45128 21.756 5.42784 22.7368 8.66703 22.7368C 13.7447 22.7368 17.6842 20.5969 20.3982 17.5653L 20.4857 17.4762C 20.7483 17.1195 21.011 16.7628 21.2736 16.4954C 21.3612 16.4062 21.3612 16.317 21.4487 16.2279C 21.7113 15.9604 21.8864 15.6037 22.0615 15.2471C 22.1491 15.1579 22.2366 14.9796 22.3242 14.8904C 22.4993 14.6229 22.6743 14.2663 22.8494 13.9988C 22.937 13.8204 23.0245 13.7313 23.0245 13.5529C 23.1996 13.1963 23.2872 12.8396 23.4623 12.5721C 23.5498 12.483 23.5498 12.3046 23.6373 12.2155C 23.8124 11.7697 23.9 11.413 24.0751 10.9672L 24.0751 10.878C 24.5128 9.36223 24.6879 7.84644 24.6879 6.41981C 24.6879 6.15232 24.6879 5.88483 24.6879 5.7065C 25.5634 5.08235 26.3513 4.27988 26.9641 3.38824C 27.1392 3.12074 27.3143 2.94241 27.4894 2.76409C 27.4894 2.67492 27.4894 2.67492 27.4894 2.76409Z"/>
</defs>
</svg>
